<?xml version="1.0" standalone="no"?><!DOCTYPE svg PUBLIC "-//W3C//DTD SVG 1.1//EN" "http://www.w3.org/Graphics/SVG/1.1/DTD/svg11.dtd"><svg t="1572100525292" class="icon" viewBox="0 0 1024 1024" version="1.1" xmlns="http://www.w3.org/2000/svg" p-id="1185" xmlns:xlink="http://www.w3.org/1999/xlink" width="200" height="200"><defs><style type="text/css"></style></defs><path d="M512 64a230.4 230.4 0 0 1 230.4 230.4v80.64c0 50.368-16.192 96.96-43.584 134.848l31.872 12.416A259.968 259.968 0 0 1 896 764.416v91.84c0 53.76-43.648 97.472-97.472 97.472H225.472A97.472 97.472 0 0 1 128 856.256v-91.84A259.968 259.968 0 0 1 293.312 522.24l31.872-12.416A229.376 229.376 0 0 1 281.6 375.04V294.4A230.4 230.4 0 0 1 512 64zM374.016 559.552l-57.408 22.4A195.968 195.968 0 0 0 192 764.288v91.904c0 18.496 14.976 33.472 33.472 33.472h573.056a33.472 33.472 0 0 0 33.472-33.472v-91.84c0-80.64-49.472-153.152-124.608-182.528l-56.96-22.272-5.248 3.456a229.504 229.504 0 0 1-73.344 34.56l-1.152 0.256a211.584 211.584 0 0 1-111.488 1.536 230.528 230.528 0 0 1-85.184-39.872zM512 128a166.4 166.4 0 0 0-166.4 166.4v80.64c0 51.2 23.104 96.96 59.52 127.488 22.528 16.768 45.056 28.16 67.648 34.24a167.296 167.296 0 0 0 81.92-0.832c17.92-5.12 35.968-13.632 54.016-25.408A166.464 166.464 0 0 0 678.4 375.04V294.4A166.4 166.4 0 0 0 512 128z" p-id="1186" fill="#0e932e"></path></svg>